<svg xmlns="http://www.w3.org/2000/svg" width="128" height="128" viewBox="0 0 128 128"><rect width="128" height="128" rx="28" fill="#EAF8FF"/><rect x="34" y="8" width="7" height="14" rx="3" fill="#1F8AB8"/><rect x="87" y="8" width="7" height="14" rx="3" fill="#1F8AB8"/><rect x="20" y="16" width="88" height="12" rx="4" fill="#1F8AB8"/><rect x="19.5" y="40.0" width="10.1" height="48" rx="3" fill="#FFFFFF" opacity="0.35" stroke="#1F8AB8" stroke-width="1.2"/><rect x="32.6" y="40.0" width="10.1" height="48" rx="3" fill="#FFFFFF" opacity="0.35" stroke="#1F8AB8" stroke-width="1.2"/><rect x="45.8" y="40.0" width="10.1" height="48" rx="3" fill="#E85D3D" stroke="#1F8AB8" stroke-width="2"/><rect x="58.9" y="40.0" width="10.1" height="48" rx="3" fill="#FFFFFF" opacity="0.35" stroke="#1F8AB8" stroke-width="1.2"/><rect x="72.1" y="40.0" width="10.1" height="48" rx="3" fill="#FFFFFF" opacity="0.35" stroke="#1F8AB8" stroke-width="1.2"/><rect x="85.2" y="40.0" width="10.1" height="48" rx="3" fill="#FFFFFF" opacity="0.35" stroke="#1F8AB8" stroke-width="1.2"/><rect x="98.4" y="40.0" width="10.1" height="48" rx="3" fill="#FFFFFF" opacity="0.35" stroke="#1F8AB8" stroke-width="1.2"/><path d="M 50.9 93.0 C 58.9 103.0 58.9 111.0 50.9 111.0 C 42.9 111.0 42.9 103.0 50.9 93.0 Z" fill="#1F8AB8"/></svg>