<svg xmlns="http://www.w3.org/2000/svg" width="128" height="128" viewBox="0 0 128 128"><rect width="128" height="128" rx="28" fill="#F5F0FF"/><rect x="34" y="8" width="7" height="14" rx="3" fill="#6B4DE6"/><rect x="87" y="8" width="7" height="14" rx="3" fill="#6B4DE6"/><rect x="20" y="16" width="88" height="12" rx="4" fill="#6B4DE6"/><rect x="21.2" y="31.2" width="15.2" height="16.6" rx="2.5" fill="#FFFFFF" opacity="0.4" stroke="#6B4DE6" stroke-width="1.4"/><rect x="38.8" y="31.2" width="15.2" height="16.6" rx="2.5" fill="#FFFFFF" opacity="0.4" stroke="#6B4DE6" stroke-width="1.4"/><rect x="56.4" y="31.2" width="15.2" height="16.6" rx="2.5" fill="#FFFFFF" opacity="0.4" stroke="#6B4DE6" stroke-width="1.4"/><rect x="74.0" y="31.2" width="15.2" height="16.6" rx="2.5" fill="#FFFFFF" opacity="0.4" stroke="#6B4DE6" stroke-width="1.4"/><rect x="91.6" y="31.2" width="15.2" height="16.6" rx="2.5" fill="#FFFFFF" opacity="0.4" stroke="#6B4DE6" stroke-width="1.4"/><rect x="21.2" y="50.2" width="15.2" height="16.6" rx="2.5" fill="#FFFFFF" opacity="0.4" stroke="#6B4DE6" stroke-width="1.4"/><rect x="38.8" y="50.2" width="15.2" height="16.6" rx="2.5" fill="#FFFFFF" opacity="0.4" stroke="#6B4DE6" stroke-width="1.4"/><rect x="56.4" y="50.2" width="15.2" height="16.6" rx="2.5" fill="#FFFFFF" opacity="0.4" stroke="#6B4DE6" stroke-width="1.4"/><rect x="74.0" y="50.2" width="15.2" height="16.6" rx="2.5" fill="#E86B3D" stroke="#6B4DE6" stroke-width="2"/><circle cx="81.6" cy="58.5" r="3" fill="#6B4DE6"/><rect x="91.6" y="50.2" width="15.2" height="16.6" rx="2.5" fill="#FFFFFF" opacity="0.4" stroke="#6B4DE6" stroke-width="1.4"/><rect x="21.2" y="69.2" width="15.2" height="16.6" rx="2.5" fill="#FFFFFF" opacity="0.4" stroke="#6B4DE6" stroke-width="1.4"/><rect x="38.8" y="69.2" width="15.2" height="16.6" rx="2.5" fill="#FFFFFF" opacity="0.4" stroke="#6B4DE6" stroke-width="1.4"/><rect x="56.4" y="69.2" width="15.2" height="16.6" rx="2.5" fill="#FFFFFF" opacity="0.4" stroke="#6B4DE6" stroke-width="1.4"/><rect x="74.0" y="69.2" width="15.2" height="16.6" rx="2.5" fill="#FFFFFF" opacity="0.4" stroke="#6B4DE6" stroke-width="1.4"/><rect x="91.6" y="69.2" width="15.2" height="16.6" rx="2.5" fill="#FFFFFF" opacity="0.4" stroke="#6B4DE6" stroke-width="1.4"/><rect x="21.2" y="88.2" width="15.2" height="16.6" rx="2.5" fill="#FFFFFF" opacity="0.4" stroke="#6B4DE6" stroke-width="1.4"/><rect x="38.8" y="88.2" width="15.2" height="16.6" rx="2.5" fill="#FFFFFF" opacity="0.4" stroke="#6B4DE6" stroke-width="1.4"/><rect x="56.4" y="88.2" width="15.2" height="16.6" rx="2.5" fill="#FFFFFF" opacity="0.4" stroke="#6B4DE6" stroke-width="1.4"/><rect x="74.0" y="88.2" width="15.2" height="16.6" rx="2.5" fill="#FFFFFF" opacity="0.4" stroke="#6B4DE6" stroke-width="1.4"/><rect x="91.6" y="88.2" width="15.2" height="16.6" rx="2.5" fill="#FFFFFF" opacity="0.4" stroke="#6B4DE6" stroke-width="1.4"/></svg>