<svg xmlns="http://www.w3.org/2000/svg" width="128" height="128" viewBox="0 0 128 128"><rect width="128" height="128" rx="28" fill="#EAF8FF"/><rect x="42" y="52" width="44" height="52" fill="#1F8AB8"/><circle cx="52" cy="64" r="4" fill="#EAF8FF"/><circle cx="76" cy="64" r="4" fill="#EAF8FF"/><circle cx="52" cy="82" r="4" fill="#EAF8FF"/><circle cx="76" cy="82" r="4" fill="#EAF8FF"/><path d="M40 52 C34 38 48 30 40 16 C56 22 62 36 52 48 C64 40 70 26 62 14 C82 22 88 42 74 54 C86 48 90 34 84 22 C98 32 100 52 84 62 C70 70 50 66 40 52 Z" fill="#E85D3D"/></svg>