<svg xmlns="http://www.w3.org/2000/svg" width="128" height="128" viewBox="0 0 128 128"><rect width="128" height="128" rx="28" fill="#E8F1FF"/><g fill="#2F6FED"><circle cx="28" cy="28" r="4"/><circle cx="42" cy="28" r="4"/><circle cx="56" cy="28" r="4"/><circle cx="70" cy="28" r="4"/><circle cx="84" cy="28" r="4"/><circle cx="98" cy="28" r="4"/><circle cx="28" cy="42" r="4"/><circle cx="42" cy="42" r="4"/><circle cx="56" cy="42" r="4"/><circle cx="70" cy="42" r="4"/><circle cx="84" cy="42" r="4"/><circle cx="98" cy="42" r="4"/><circle cx="28" cy="56" r="4"/><circle cx="42" cy="56" r="4"/><circle cx="56" cy="56" r="4"/><circle cx="70" cy="56" r="4"/><circle cx="84" cy="56" r="4"/><circle cx="98" cy="56" r="4"/><circle cx="28" cy="70" r="4"/><circle cx="42" cy="70" r="4"/><circle cx="56" cy="70" r="4"/><circle cx="70" cy="70" r="4"/><circle cx="84" cy="70" r="4"/><circle cx="98" cy="70" r="4"/><circle cx="28" cy="84" r="4"/><circle cx="42" cy="84" r="4"/><circle cx="56" cy="84" r="4"/><circle cx="70" cy="84" r="4"/><circle cx="84" cy="84" r="4"/><circle cx="98" cy="84" r="4"/><circle cx="28" cy="98" r="4"/><circle cx="42" cy="98" r="4"/><circle cx="56" cy="98" r="4"/><circle cx="70" cy="98" r="4"/><circle cx="84" cy="98" r="4"/><circle cx="98" cy="98" r="4"/></g></svg>