<svg xmlns="http://www.w3.org/2000/svg" width="128" height="128" viewBox="0 0 128 128"><rect width="128" height="128" rx="28" fill="#EAF8FF"/><rect x="18.5" y="31.5" width="15" height="15" rx="2" fill="none" stroke="#1F8AB8" stroke-width="3"/><rect x="37.5" y="31.5" width="15" height="15" rx="2" fill="none" stroke="#1F8AB8" stroke-width="3"/><rect x="56.5" y="31.5" width="15" height="15" rx="2" fill="none" stroke="#1F8AB8" stroke-width="3"/><rect x="75.5" y="31.5" width="15" height="15" rx="2" fill="none" stroke="#1F8AB8" stroke-width="3"/><rect x="94.5" y="31.5" width="15" height="15" rx="2" fill="none" stroke="#1F8AB8" stroke-width="3"/><rect x="18.5" y="50.5" width="15" height="15" rx="2" fill="#E85D3D" stroke="#1F8AB8" stroke-width="3"/><rect x="37.5" y="50.5" width="15" height="15" rx="2" fill="#E85D3D" stroke="#1F8AB8" stroke-width="3"/><rect x="56.5" y="50.5" width="15" height="15" rx="2" fill="#E85D3D" stroke="#1F8AB8" stroke-width="3"/><rect x="75.5" y="50.5" width="15" height="15" rx="2" fill="#E85D3D" stroke="#1F8AB8" stroke-width="3"/><rect x="94.5" y="50.5" width="15" height="15" rx="2" fill="#E85D3D" stroke="#1F8AB8" stroke-width="3"/><rect x="18.5" y="69.5" width="15" height="15" rx="2" fill="none" stroke="#1F8AB8" stroke-width="3"/><rect x="37.5" y="69.5" width="15" height="15" rx="2" fill="none" stroke="#1F8AB8" stroke-width="3"/><rect x="56.5" y="69.5" width="15" height="15" rx="2" fill="none" stroke="#1F8AB8" stroke-width="3"/><rect x="75.5" y="69.5" width="15" height="15" rx="2" fill="none" stroke="#1F8AB8" stroke-width="3"/><rect x="94.5" y="69.5" width="15" height="15" rx="2" fill="none" stroke="#1F8AB8" stroke-width="3"/></svg>