<svg xmlns="http://www.w3.org/2000/svg" width="128" height="128" viewBox="0 0 128 128"><rect width="128" height="128" rx="28" fill="#EAF8FF"/><path d="M24 32 h80 a8 8 0 0 1 8 8 v36 a8 8 0 0 1 -8 8 h-52 l-12 14 v-14 h-16 a8 8 0 0 1 -8 -8 v-36 a8 8 0 0 1 8 -8 z" fill="#1F8AB8"/><path d="M40 64 q8 -14 16 0" fill="none" stroke="#E85D3D" stroke-width="6" stroke-linecap="round"/><path d="M58 64 q8 -20 16 0" fill="none" stroke="#E85D3D" stroke-width="6" stroke-linecap="round"/><path d="M76 64 q8 -14 16 0" fill="none" stroke="#E85D3D" stroke-width="6" stroke-linecap="round"/></svg>