<svg xmlns="http://www.w3.org/2000/svg" width="128" height="128" viewBox="0 0 128 128"><rect width="128" height="128" rx="28" fill="#FEF2F2"/><rect x="34" y="8" width="7" height="14" rx="3" fill="#DC2626"/><rect x="87" y="8" width="7" height="14" rx="3" fill="#DC2626"/><rect x="20" y="16" width="88" height="12" rx="4" fill="#DC2626"/><rect x="19.5" y="40.0" width="10.1" height="48" rx="3" fill="#FFFFFF" opacity="0.35" stroke="#DC2626" stroke-width="1.2"/><rect x="32.6" y="40.0" width="10.1" height="48" rx="3" fill="#FFFFFF" opacity="0.35" stroke="#DC2626" stroke-width="1.2"/><rect x="45.8" y="40.0" width="10.1" height="48" rx="3" fill="#FFFFFF" opacity="0.35" stroke="#DC2626" stroke-width="1.2"/><rect x="58.9" y="40.0" width="10.1" height="48" rx="3" fill="#2563EB" stroke="#DC2626" stroke-width="2"/><rect x="72.1" y="40.0" width="10.1" height="48" rx="3" fill="#FFFFFF" opacity="0.35" stroke="#DC2626" stroke-width="1.2"/><rect x="85.2" y="40.0" width="10.1" height="48" rx="3" fill="#FFFFFF" opacity="0.35" stroke="#DC2626" stroke-width="1.2"/><rect x="98.4" y="40.0" width="10.1" height="48" rx="3" fill="#FFFFFF" opacity="0.35" stroke="#DC2626" stroke-width="1.2"/><ellipse cx="64.0" cy="102.0" rx="5" ry="9" fill="#DC2626"/><line x1="59.0" y1="102.0" x2="69.0" y2="102.0" stroke="#FFFFFF" stroke-width="1.5" opacity="0.6"/></svg>