<svg xmlns="http://www.w3.org/2000/svg" width="128" height="128" viewBox="0 0 128 128"><rect width="128" height="128" rx="28" fill="#F0FFF4"/><rect x="34" y="8" width="7" height="14" rx="3" fill="#2F9E6B"/><rect x="87" y="8" width="7" height="14" rx="3" fill="#2F9E6B"/><rect x="20" y="16" width="88" height="12" rx="4" fill="#2F9E6B"/><rect x="19.5" y="40.0" width="10.1" height="48" rx="3" fill="#FFFFFF" opacity="0.35" stroke="#2F9E6B" stroke-width="1.2"/><rect x="32.6" y="40.0" width="10.1" height="48" rx="3" fill="#FFFFFF" opacity="0.35" stroke="#2F9E6B" stroke-width="1.2"/><rect x="45.8" y="40.0" width="10.1" height="48" rx="3" fill="#FFFFFF" opacity="0.35" stroke="#2F9E6B" stroke-width="1.2"/><rect x="58.9" y="40.0" width="10.1" height="48" rx="3" fill="#FFFFFF" opacity="0.35" stroke="#2F9E6B" stroke-width="1.2"/><rect x="72.1" y="40.0" width="10.1" height="48" rx="3" fill="#FFFFFF" opacity="0.35" stroke="#2F9E6B" stroke-width="1.2"/><rect x="85.2" y="40.0" width="10.1" height="48" rx="3" fill="#FFFFFF" opacity="0.35" stroke="#2F9E6B" stroke-width="1.2"/><rect x="98.4" y="40.0" width="10.1" height="48" rx="3" fill="#E8A838" stroke="#2F9E6B" stroke-width="2"/><circle cx="103.4" cy="102.0" r="6" fill="#2F9E6B"/><line x1="111.4" y1="102.0" x2="115.4" y2="102.0" stroke="#2F9E6B" stroke-width="2" stroke-linecap="round"/><line x1="109.1" y1="107.7" x2="111.9" y2="110.5" stroke="#2F9E6B" stroke-width="2" stroke-linecap="round"/><line x1="103.4" y1="110.0" x2="103.4" y2="114.0" stroke="#2F9E6B" stroke-width="2" stroke-linecap="round"/><line x1="97.8" y1="107.7" x2="94.9" y2="110.5" stroke="#2F9E6B" stroke-width="2" stroke-linecap="round"/><line x1="95.4" y1="102.0" x2="91.4" y2="102.0" stroke="#2F9E6B" stroke-width="2" stroke-linecap="round"/><line x1="97.8" y1="96.3" x2="94.9" y2="93.5" stroke="#2F9E6B" stroke-width="2" stroke-linecap="round"/><line x1="103.4" y1="94.0" x2="103.4" y2="90.0" stroke="#2F9E6B" stroke-width="2" stroke-linecap="round"/><line x1="109.1" y1="96.3" x2="111.9" y2="93.5" stroke="#2F9E6B" stroke-width="2" stroke-linecap="round"/></svg>