<svg xmlns="http://www.w3.org/2000/svg" width="128" height="128" viewBox="0 0 128 128"><rect width="128" height="128" rx="28" fill="#E8F1FF"/><rect x="34" y="8" width="7" height="14" rx="3" fill="#2F6FED"/><rect x="87" y="8" width="7" height="14" rx="3" fill="#2F6FED"/><rect x="20" y="16" width="88" height="12" rx="4" fill="#2F6FED"/><rect x="19.5" y="40.0" width="10.1" height="48" rx="3" fill="#FFFFFF" opacity="0.35" stroke="#2F6FED" stroke-width="1.2"/><rect x="32.6" y="40.0" width="10.1" height="48" rx="3" fill="#FFFFFF" opacity="0.35" stroke="#2F6FED" stroke-width="1.2"/><rect x="45.8" y="40.0" width="10.1" height="48" rx="3" fill="#FFFFFF" opacity="0.35" stroke="#2F6FED" stroke-width="1.2"/><rect x="58.9" y="40.0" width="10.1" height="48" rx="3" fill="#FFFFFF" opacity="0.35" stroke="#2F6FED" stroke-width="1.2"/><rect x="72.1" y="40.0" width="10.1" height="48" rx="3" fill="#FFFFFF" opacity="0.35" stroke="#2F6FED" stroke-width="1.2"/><rect x="85.2" y="40.0" width="10.1" height="48" rx="3" fill="#F2C14E" stroke="#2F6FED" stroke-width="2"/><rect x="98.4" y="40.0" width="10.1" height="48" rx="3" fill="#FFFFFF" opacity="0.35" stroke="#2F6FED" stroke-width="1.2"/><circle cx="90.3" cy="102.0" r="9" fill="#2F6FED"/><path d="M 81.3 102.0 Q 90.3 96.0 99.3 102.0" stroke="#FFFFFF" stroke-width="1.5" fill="none" opacity="0.6"/></svg>