<svg xmlns="http://www.w3.org/2000/svg" width="128" height="128" viewBox="0 0 128 128"><rect width="128" height="128" rx="28" fill="#FFF0F3"/><rect x="34" y="8" width="7" height="14" rx="3" fill="#E23D6B"/><rect x="87" y="8" width="7" height="14" rx="3" fill="#E23D6B"/><rect x="20" y="16" width="88" height="12" rx="4" fill="#E23D6B"/><rect x="19.5" y="40.0" width="10.1" height="48" rx="3" fill="#FFFFFF" opacity="0.35" stroke="#E23D6B" stroke-width="1.2"/><rect x="32.6" y="40.0" width="10.1" height="48" rx="3" fill="#FFFFFF" opacity="0.35" stroke="#E23D6B" stroke-width="1.2"/><rect x="45.8" y="40.0" width="10.1" height="48" rx="3" fill="#FFFFFF" opacity="0.35" stroke="#E23D6B" stroke-width="1.2"/><rect x="58.9" y="40.0" width="10.1" height="48" rx="3" fill="#FFFFFF" opacity="0.35" stroke="#E23D6B" stroke-width="1.2"/><rect x="72.1" y="40.0" width="10.1" height="48" rx="3" fill="#3D9B8F" stroke="#E23D6B" stroke-width="2"/><rect x="85.2" y="40.0" width="10.1" height="48" rx="3" fill="#FFFFFF" opacity="0.35" stroke="#E23D6B" stroke-width="1.2"/><rect x="98.4" y="40.0" width="10.1" height="48" rx="3" fill="#FFFFFF" opacity="0.35" stroke="#E23D6B" stroke-width="1.2"/><rect x="70.1" y="96.0" width="14" height="12" rx="2" fill="#E23D6B"/><line x1="70.1" y1="102.0" x2="84.1" y2="102.0" stroke="#FFFFFF" stroke-width="1.5" opacity="0.7"/></svg>